<?xml version="1.0" encoding="utf-8"?>
<!-- Generator: Adobe Illustrator 27.3.1, SVG Export Plug-In . SVG Version: 6.00 Build 0)  -->
<svg version="1.1" xmlns="http://www.w3.org/2000/svg" xmlns:xlink="http://www.w3.org/1999/xlink" x="0px" y="0px"
	 viewBox="0 0 240 39" style="enable-background:new 0 0 240 39;" xml:space="preserve">
<style type="text/css">
	.st0{fill:#00252E;}
	.st1{fill:#FF52C1;}
</style>
<g id="Layer_1">
</g>
<g id="Layer_2">
	<path class="st0" d="M58,5.7c0-0.3,0.1-0.5,0.3-0.7c0.2-0.2,0.4-0.3,0.7-0.3h6.8c0.2,0,0.5,0.1,0.7,0.3c0.2,0.2,0.4,0.4,0.4,0.7
		v10.9h11.4V5.7c0-0.3,0.1-0.5,0.3-0.7c0.2-0.2,0.4-0.3,0.7-0.3h6.7c0.3,0,0.6,0.1,0.8,0.2c0.2,0.2,0.3,0.4,0.3,0.7v32.2
		c0,0.3-0.1,0.6-0.3,0.8c-0.2,0.2-0.5,0.3-0.8,0.3h-6.8c-0.3,0-0.6-0.1-0.7-0.3c-0.2-0.2-0.3-0.4-0.3-0.8V24.8H66.9v13.1
		c0,0.3-0.1,0.6-0.3,0.7c-0.2,0.2-0.5,0.3-0.8,0.3H59c-0.6,0-1-0.3-1-0.9C58,37.9,58,5.7,58,5.7z M120.9,38.4
		c-0.2,0.2-0.4,0.3-0.6,0.3c-0.2,0-0.4,0.1-0.6,0.1h-3.5c-0.3,0-0.5,0-0.7-0.2c-0.2-0.1-0.4-0.2-0.5-0.4c-0.1-0.2-0.3-0.4-0.3-0.6
		c-0.1-0.2-0.2-0.4-0.2-0.7l-0.7-2.9c-0.2,0.5-0.6,1-1,1.6c-0.5,0.6-1,1.2-1.7,1.7c-0.7,0.5-1.5,1-2.4,1.3c-0.9,0.4-2,0.5-3.2,0.5
		c-1.7,0-3.3-0.3-4.8-1c-1.4-0.7-2.6-1.6-3.6-2.8c-1-1.2-1.8-2.5-2.3-4.1c-0.6-1.6-0.8-3.2-0.8-5V11.4c0-0.6,0.1-1,0.4-1.3
		c0.3-0.3,0.7-0.4,1.2-0.4h5.3c0.7,0,1.1,0.1,1.4,0.3c0.2,0.2,0.4,0.7,0.4,1.3v15c0,0.7,0.2,1.3,0.4,1.9c0.3,0.6,0.7,1.1,1.2,1.6
		c0.5,0.5,1,0.8,1.7,1.1c0.6,0.3,1.3,0.4,1.9,0.4c0.6,0,1.1-0.1,1.7-0.4c0.6-0.3,1.1-0.6,1.6-1c0.5-0.4,0.9-1,1.2-1.5
		c0.3-0.6,0.5-1.2,0.5-1.9V11.3c0-0.3,0.1-0.5,0.2-0.8c0.1-0.3,0.2-0.5,0.4-0.6c0.2-0.1,0.4-0.2,0.6-0.3s0.4-0.1,0.6-0.1h5.2
		c0.7,0,1.1,0.2,1.4,0.5c0.3,0.3,0.4,0.8,0.4,1.3v25.7c0,0.3-0.1,0.6-0.2,0.8s-0.3,0.4-0.5,0.6C120.8,38.5,120.9,38.4,120.9,38.4z
		 M147.6,35.3c-0.4,0.4-0.9,0.9-1.4,1.3c-0.5,0.5-1,0.9-1.6,1.3c-0.6,0.4-1.2,0.8-1.9,1c-0.7,0.3-1.5,0.4-2.2,0.4
		c-2.1,0-4-0.4-5.8-1.2c-1.7-0.8-3.3-1.8-4.5-3.2c-1.3-1.4-2.3-3-3-4.8c-0.7-1.8-1.1-3.8-1.1-5.9c0-2.1,0.4-4.1,1.1-5.9
		c0.7-1.8,1.7-3.4,3-4.8c1.3-1.4,2.8-2.5,4.5-3.2c1.8-0.8,3.7-1.2,5.8-1.2c0.8,0,1.6,0.1,2.3,0.4c0.7,0.2,1.3,0.5,1.9,0.9
		c0.6,0.4,1.1,0.8,1.6,1.3c0.5,0.5,0.9,1,1.4,1.4V2.7c0-0.5,0.1-0.9,0.4-1.2c0.3-0.3,0.7-0.5,1.3-0.5h5.2c0.2,0,0.4,0,0.6,0.1
		c0.2,0.1,0.4,0.2,0.6,0.4c0.2,0.2,0.3,0.3,0.4,0.6c0.1,0.2,0.2,0.5,0.2,0.7v34.4c0,1.2-0.6,1.8-1.9,1.8H150c-0.3,0-0.5,0-0.7-0.1
		c-0.2-0.1-0.3-0.2-0.4-0.3c-0.1-0.2-0.2-0.4-0.3-0.6c-0.1-0.3-0.2-0.5-0.3-0.8L147.6,35.3L147.6,35.3z M134.4,24.3
		c0,1,0.2,1.9,0.5,2.8c0.3,0.9,0.8,1.6,1.3,2.3c0.6,0.6,1.3,1.2,2.1,1.5c0.8,0.4,1.7,0.6,2.7,0.6c1,0,1.9-0.2,2.8-0.5
		c0.8-0.3,1.6-0.8,2.3-1.5c0.6-0.6,1.2-1.4,1.6-2.2c0.4-0.8,0.6-1.7,0.7-2.7v-0.3c0-1-0.2-1.9-0.6-2.8c-0.4-0.9-0.9-1.7-1.5-2.3
		c-0.7-0.7-1.4-1.2-2.3-1.6c-0.9-0.4-1.9-0.6-2.9-0.6c-1,0-1.9,0.2-2.7,0.6c-0.8,0.4-1.5,0.9-2.1,1.6c-0.6,0.7-1,1.5-1.3,2.3
		C134.5,22.4,134.4,23.3,134.4,24.3L134.4,24.3z M183.1,35.3c-0.4,0.4-0.9,0.9-1.4,1.3s-1,0.9-1.6,1.3c-0.6,0.4-1.2,0.8-1.9,1
		c-0.7,0.3-1.5,0.4-2.2,0.4c-2.1,0-4-0.4-5.8-1.2c-1.7-0.8-3.3-1.8-4.5-3.2c-1.3-1.4-2.3-3-3-4.8c-0.7-1.8-1.1-3.8-1.1-5.9
		c0-2.1,0.4-4.1,1.1-5.9s1.7-3.4,3-4.8c1.3-1.4,2.8-2.5,4.5-3.2c1.8-0.8,3.7-1.2,5.8-1.2c0.8,0,1.6,0.1,2.3,0.4
		c0.7,0.2,1.3,0.5,1.9,0.9c0.6,0.4,1.1,0.8,1.6,1.3c0.5,0.5,0.9,1,1.4,1.4V2.7c0-0.5,0.1-0.9,0.4-1.2c0.3-0.3,0.7-0.5,1.3-0.5h5.2
		c0.2,0,0.4,0,0.6,0.1c0.2,0.1,0.4,0.2,0.6,0.4c0.2,0.2,0.3,0.3,0.4,0.6c0.1,0.2,0.2,0.5,0.2,0.7v34.4c0,1.2-0.6,1.8-1.9,1.8h-4.5
		c-0.3,0-0.5,0-0.7-0.1c-0.2-0.1-0.3-0.2-0.4-0.3c-0.1-0.2-0.2-0.4-0.3-0.6c-0.1-0.3-0.2-0.5-0.3-0.8L183.1,35.3L183.1,35.3z
		 M169.9,24.3c0,1,0.2,1.9,0.5,2.8c0.3,0.9,0.8,1.6,1.3,2.3c0.6,0.6,1.3,1.2,2.1,1.5c0.8,0.4,1.7,0.6,2.7,0.6c1,0,1.9-0.2,2.8-0.5
		c0.8-0.3,1.6-0.8,2.3-1.5c0.6-0.6,1.2-1.4,1.6-2.2c0.4-0.8,0.6-1.7,0.7-2.7v-0.3c0-1-0.2-1.9-0.6-2.8c-0.4-0.9-0.9-1.7-1.5-2.3
		c-0.7-0.7-1.4-1.2-2.3-1.6c-0.9-0.4-1.9-0.6-2.9-0.6c-1,0-1.9,0.2-2.7,0.6c-0.8,0.4-1.5,0.9-2.1,1.6c-0.6,0.7-1,1.5-1.3,2.3
		C170,22.4,169.9,23.3,169.9,24.3L169.9,24.3z M198,2.7c0-0.5,0.1-0.9,0.4-1.2c0.2-0.3,0.7-0.5,1.3-0.5h5.6c0.2,0,0.3,0,0.5,0.1
		c0.2,0.1,0.3,0.2,0.5,0.4c0.1,0.2,0.3,0.3,0.4,0.6c0.1,0.2,0.1,0.5,0.1,0.7v34.3c0,0.6-0.2,1-0.5,1.3c-0.3,0.3-0.8,0.4-1.3,0.4
		h-5.3c-0.6,0-1-0.2-1.3-0.4c-0.2-0.3-0.4-0.7-0.4-1.3V2.7z M236.7,35.3c-1.3,1.2-2.9,2.2-4.6,2.9c-1.7,0.7-3.5,1.1-5.4,1
		c-2.1,0-4.1-0.4-6-1.2c-1.8-0.7-3.5-1.8-4.9-3.2c-1.4-1.4-2.6-3-3.4-4.8c-0.8-1.8-1.2-3.8-1.2-6c0-1.3,0.2-2.7,0.5-3.9
		c0.3-1.2,0.8-2.4,1.4-3.5c0.6-1.1,1.3-2.1,2.2-3c0.9-0.9,1.8-1.7,2.9-2.4c1.1-0.7,2.3-1.2,3.5-1.5c1.3-0.4,2.6-0.6,4-0.6
		c1.3,0,2.5,0.2,3.7,0.5c1.2,0.3,2.3,0.8,3.4,1.4c1.1,0.6,2,1.3,2.9,2.2c0.9,0.8,1.6,1.8,2.3,2.8c0.6,1,1.1,2.1,1.5,3.3
		c0.3,1.2,0.5,2.3,0.5,3.6c0,0.8,0,1.4,0,2c0,0.5-0.1,0.9-0.4,1.2c-0.2,0.3-0.6,0.5-1.1,0.6c-0.5,0.1-1.2,0.2-2.2,0.2h-16.5
		c0.2,1,0.5,1.8,0.9,2.5c0.4,0.6,1,1.2,1.6,1.6c0.6,0.4,1.3,0.7,2,0.8c0.6,0.2,1.3,0.2,2,0.3c0.6,0,1.1-0.1,1.7-0.2
		c0.6-0.1,1.1-0.3,1.7-0.5c0.5-0.2,1-0.4,1.5-0.7c0.5-0.3,0.8-0.5,1.1-0.8c0.2-0.2,0.5-0.3,0.6-0.4c0.2-0.1,0.4-0.1,0.6-0.1
		c0.2,0,0.4,0.1,0.6,0.2c0.3,0.2,0.5,0.4,0.7,0.6l2.4,2.8c0.2,0.2,0.3,0.4,0.3,0.5c0,0.2,0.1,0.3,0.1,0.5c0,0.3-0.1,0.6-0.3,0.8
		C237.1,35,236.9,35.2,236.7,35.3L236.7,35.3z M225.7,16.2c-0.6,0-1.2,0.1-1.7,0.4c-0.6,0.2-1.1,0.6-1.6,1c-0.5,0.4-0.9,0.9-1.3,1.4
		c-0.4,0.5-0.7,1-1,1.5h11.7c-0.3-0.6-0.7-1.1-1-1.7c-0.4-0.5-0.8-0.9-1.3-1.3c-0.5-0.4-1.1-0.7-1.7-0.9
		C227.2,16.3,226.5,16.2,225.7,16.2z"/>
	<path class="st1" d="M30.4,1.3c-7.7,0-15.8,1.7-23.9,4c-1,0.2-2,0.9-2.6,1.7C3.4,7.8,3.2,8.6,3.1,9.4C2.3,13.9,2.4,18.2,2.5,23
		c0,1.1,0.2,2.4,0.7,3.2c0.5,0.8,1.5,1.3,2.6,1.5c1.4,0.2,2.8,0.4,4.2,0.5l-0.3,8.7c0,0.7,0.3,1.3,0.7,1.6c0.4,0.3,0.8,0.4,1.2,0.4
		c0.9,0.1,1.9-0.3,2.4-1.3c2.2-4.2,3.6-6.1,6.3-8.9c7.2,0.2,13.4-0.2,20.5-0.7c2.5-0.1,4.2-2.1,4.7-3.7c1.4-4.2,1.6-9.5,1.7-14.7
		c0.1-2.1-0.7-4.1-2-5.2c-1.2-1-2.7-1.3-4.1-1.7C37.4,1.8,33.7,1.4,30.4,1.3z M40.7,4.6C42,5,43.2,5.4,44,6c1.3,1.3,1.2,2.2,1.2,3.7
		c-0.1,5.1-0.4,10.1-1.5,13.9c-0.5,1.4-1.4,2.4-3,2.6c-7.2,0.5-13.5,0.9-20.7,0.7c-0.3,0-0.6,0.1-0.8,0.3c-3,3.1-4.6,5.2-6.9,9.7
		c-0.1,0.1-0.2,0.2-0.3,0.2c-0.1,0-0.1-0.1-0.1-0.1l0.3-9.4c0-0.5-0.4-1-0.9-1c-1.7-0.2-3.4-0.4-5.1-0.6c-0.7-0.1-1-0.3-1.2-0.6
		c-0.3-0.8-0.3-1.3-0.4-2.1C4.4,18.2,4.3,14,5.1,9.9c0.1-0.6,0.3-1.2,0.5-1.8c0.4-0.6,1-0.7,1.6-0.9C15.2,5,23,3.4,30.3,3.4
		C33.9,3.5,37.7,3.9,40.7,4.6z M13.2,12.7c-1.1,1.3-1,3.1-0.1,4.3c0.4,0.6,1.1,1.1,2,1.2c1.1,0.1,1.8-0.4,2.5-0.9
		c1.4-1.2,1.5-3.2,0.5-4.7c-0.5-0.8-1.4-1.2-2.2-1.2C14.6,11.5,13.8,12,13.2,12.7L13.2,12.7z M25,11.7c-1.1,0-2,0.8-2.5,1.6
		c-0.6,0.9-1,2.1-0.5,3.2c1,2.2,4.3,2.2,5.6-0.1c0.6-1,0.5-2.2,0-3.1c-0.5-0.9-1.1-1.5-2.1-1.7C25.4,11.7,25.2,11.7,25,11.7z
		 M34.7,11.9c-0.3,0-0.7,0-1,0.1c-1.3,0.4-2.4,1.7-2.3,3.4c0.1,0.9,0.5,1.7,1.2,2.3c0.7,0.6,1.8,0.8,2.9,0.6
		c1.3-0.3,2.1-1.3,2.3-2.3c0.3-1,0.2-2-0.4-2.8C36.7,12.4,35.7,11.9,34.7,11.9L34.7,11.9z M15.7,13.5c0.2,0,0.4,0.1,0.6,0.4
		c0.4,0.6,0.3,1.6-0.1,2c-0.4,0.4-0.7,0.4-0.9,0.4c-0.2,0-0.4-0.2-0.6-0.4c-0.3-0.5-0.4-1.3,0-1.8C15,13.7,15.4,13.5,15.7,13.5
		L15.7,13.5z M25.2,13.7c0,0,0.5,0.3,0.7,0.6c0.2,0.4,0.2,0.7,0,1.1c-0.6,1-1.8,0.7-2,0.3c-0.1-0.2,0-0.8,0.3-1.3
		C24.6,13.9,25,13.7,25.2,13.7L25.2,13.7z M35.7,14.5c0.1,0.1,0.2,0.6,0.1,1.1c-0.1,0.4-0.3,0.7-0.8,0.8c-0.6,0.1-0.9,0-1.2-0.2
		c-0.3-0.2-0.4-0.6-0.5-0.9c-0.1-0.9,0.2-1.1,0.8-1.3C34.8,13.8,35.5,14.1,35.7,14.5z"/>
</g>
</svg>
