<?xml version="1.0" encoding="utf-8"?>
<!-- Generator: Adobe Illustrator 27.3.1, SVG Export Plug-In . SVG Version: 6.00 Build 0)  -->
<svg version="1.1" id="Layer_2" xmlns="http://www.w3.org/2000/svg" xmlns:xlink="http://www.w3.org/1999/xlink" x="0px" y="0px"
	 viewBox="0 0 240 39" style="enable-background:new 0 0 240 39;" xml:space="preserve">
<style type="text/css">
	.st0{fill:#FFFFFF;}
</style>
<path class="st0" d="M28,0.4c-7.7,0-15.8,1.7-23.9,4C3,4.6,2,5.3,1.5,6.1C1,6.9,0.8,7.7,0.6,8.5c-0.8,4.4-0.7,8.8-0.5,13.6
	c0,1.1,0.2,2.4,0.7,3.2c0.5,0.8,1.5,1.3,2.6,1.5c1.4,0.2,2.8,0.4,4.2,0.5L7.3,36c0,0.7,0.3,1.3,0.7,1.6c0.4,0.3,0.8,0.4,1.2,0.4
	c0.9,0.1,1.9-0.3,2.4-1.3c2.2-4.2,3.6-6.1,6.3-8.9c7.2,0.2,13.4-0.2,20.5-0.7c2.5-0.1,4.2-2.1,4.7-3.7c1.4-4.2,1.6-9.5,1.7-14.7
	c0.1-2.1-0.7-4.1-2-5.2c-1.2-1-2.7-1.3-4.1-1.7C35,0.9,31.3,0.4,28,0.4z M38.2,3.7c1.4,0.4,2.6,0.7,3.3,1.3c1.3,1.3,1.2,2.2,1.2,3.7
	c-0.1,5.1-0.4,10.1-1.5,13.9c-0.5,1.4-1.4,2.4-3,2.6c-7.2,0.5-13.5,0.9-20.7,0.7c-0.3,0-0.6,0.1-0.8,0.3c-3,3.1-4.6,5.2-6.9,9.7
	C9.8,36,9.6,36,9.5,36c-0.1,0-0.1-0.1-0.1-0.1l0.3-9.4c0-0.5-0.4-1-0.9-1c-1.7-0.2-3.4-0.4-5.1-0.6c-0.7-0.1-1-0.3-1.2-0.6
	c-0.3-0.8-0.3-1.3-0.4-2.1C2,17.3,1.9,13.1,2.6,9c0.1-0.6,0.3-1.2,0.5-1.8c0.4-0.6,1-0.7,1.6-0.9c8-2.2,15.7-3.8,23.1-3.8
	C31.5,2.6,35.3,2.9,38.2,3.7z M10.8,11.8c-1.1,1.3-1,3.1-0.1,4.3c0.4,0.6,1.1,1.1,2,1.2c1.1,0.1,1.8-0.4,2.5-0.9
	c1.4-1.2,1.5-3.2,0.5-4.7c-0.5-0.8-1.4-1.2-2.2-1.2C12.2,10.5,11.4,11.1,10.8,11.8L10.8,11.8z M22.6,10.7c-1.1,0-2,0.8-2.5,1.6
	c-0.6,0.9-1,2.1-0.5,3.2c1,2.2,4.3,2.2,5.6-0.1c0.6-1,0.5-2.2,0-3.1c-0.5-0.9-1.1-1.5-2.1-1.7C22.9,10.7,22.8,10.7,22.6,10.7z
	 M32.2,10.9c-0.3,0-0.7,0-1,0.1c-1.3,0.4-2.4,1.7-2.3,3.4c0.1,0.9,0.5,1.7,1.2,2.3c0.7,0.6,1.8,0.8,2.9,0.6c1.3-0.3,2.1-1.3,2.3-2.3
	c0.3-1,0.2-2-0.4-2.8C34.3,11.5,33.3,11,32.2,10.9L32.2,10.9z M13.3,12.6c0.2,0,0.4,0.1,0.6,0.4c0.4,0.6,0.3,1.6-0.1,2
	c-0.4,0.4-0.7,0.4-0.9,0.4c-0.2,0-0.4-0.2-0.6-0.4c-0.3-0.5-0.4-1.3,0-1.8C12.5,12.8,13,12.6,13.3,12.6L13.3,12.6z M22.8,12.8
	c0,0,0.5,0.3,0.7,0.6c0.2,0.4,0.2,0.7,0,1.1c-0.6,1-1.8,0.7-2,0.3c-0.1-0.2,0-0.8,0.3-1.3C22.1,13,22.6,12.8,22.8,12.8L22.8,12.8z
	 M33.3,13.5c0.1,0.1,0.2,0.6,0.1,1.1c-0.1,0.4-0.3,0.7-0.8,0.8c-0.6,0.1-0.9,0-1.2-0.2C31.2,15,31,14.7,31,14.3
	c-0.1-0.9,0.2-1.1,0.8-1.3C32.4,12.9,33.1,13.1,33.3,13.5z"/>
<path class="st0" d="M58,5.1c0-0.3,0.1-0.5,0.3-0.7C58.5,4.1,58.7,4,59,4h6.8c0.2,0,0.5,0.1,0.7,0.3c0.2,0.2,0.4,0.4,0.4,0.7v10.9
	h11.4V5.1c0-0.3,0.1-0.5,0.3-0.7C78.8,4.1,79.1,4,79.4,4h6.7c0.3,0,0.6,0.1,0.8,0.2c0.2,0.2,0.3,0.4,0.3,0.7v32.1
	c0,0.3-0.1,0.6-0.3,0.8c-0.2,0.2-0.5,0.3-0.8,0.3h-6.8c-0.3,0-0.6-0.1-0.7-0.3c-0.2-0.2-0.3-0.4-0.3-0.8V24.1H66.9v13.1
	c0,0.3-0.1,0.6-0.3,0.7c-0.2,0.2-0.5,0.3-0.8,0.3H59c-0.6,0-1-0.3-1-0.9C58,37.3,58,5.1,58,5.1z M120.9,37.8
	c-0.2,0.2-0.4,0.3-0.6,0.3c-0.2,0-0.4,0.1-0.6,0.1h-3.5c-0.3,0-0.5,0-0.7-0.2c-0.2-0.1-0.4-0.2-0.5-0.4c-0.1-0.2-0.3-0.4-0.3-0.6
	c-0.1-0.2-0.2-0.4-0.2-0.7l-0.7-2.9c-0.2,0.5-0.6,1-1,1.6c-0.5,0.6-1,1.2-1.7,1.7c-0.7,0.5-1.5,1-2.4,1.3c-0.9,0.4-2,0.5-3.2,0.5
	c-1.7,0-3.3-0.3-4.8-1C99.2,37,98,36,97,34.9c-1-1.2-1.8-2.5-2.3-4.1c-0.6-1.6-0.8-3.2-0.8-5V10.8c0-0.6,0.1-1,0.4-1.3
	C94.4,9.1,94.8,9,95.4,9h5.3c0.7,0,1.1,0.1,1.4,0.3c0.2,0.2,0.4,0.7,0.4,1.3v15c0,0.7,0.2,1.3,0.4,1.9c0.3,0.6,0.7,1.1,1.2,1.6
	c0.5,0.5,1,0.8,1.7,1.1c0.6,0.3,1.3,0.4,1.9,0.4c0.6,0,1.1-0.1,1.7-0.4c0.6-0.3,1.1-0.6,1.6-1c0.5-0.4,0.9-1,1.2-1.5
	c0.3-0.6,0.5-1.2,0.5-1.9V10.7c0-0.3,0.1-0.5,0.2-0.8c0.1-0.3,0.2-0.5,0.4-0.6c0.2-0.1,0.4-0.2,0.6-0.3s0.4-0.1,0.6-0.1h5.2
	c0.7,0,1.1,0.2,1.4,0.5c0.3,0.3,0.4,0.8,0.4,1.3v25.7c0,0.3-0.1,0.6-0.2,0.8s-0.3,0.4-0.5,0.6C120.8,37.8,120.9,37.8,120.9,37.8z
	 M147.6,34.6c-0.4,0.4-0.9,0.9-1.4,1.3c-0.5,0.5-1,0.9-1.6,1.3c-0.6,0.4-1.2,0.8-1.9,1c-0.7,0.3-1.5,0.4-2.2,0.4
	c-2.1,0-4-0.4-5.8-1.2c-1.7-0.8-3.3-1.8-4.5-3.2c-1.3-1.4-2.3-3-3-4.8c-0.7-1.8-1.1-3.8-1.1-5.9c0-2.1,0.4-4.1,1.1-5.9
	c0.7-1.8,1.7-3.4,3-4.8c1.3-1.4,2.8-2.5,4.5-3.2c1.8-0.8,3.7-1.2,5.8-1.2c0.8,0,1.6,0.1,2.3,0.4c0.7,0.2,1.3,0.5,1.9,0.9
	c0.6,0.4,1.1,0.8,1.6,1.3c0.5,0.5,0.9,1,1.4,1.4V2c0-0.5,0.1-0.9,0.4-1.2c0.3-0.3,0.7-0.5,1.3-0.5h5.2c0.2,0,0.4,0,0.6,0.1
	c0.2,0.1,0.4,0.2,0.6,0.4c0.2,0.2,0.3,0.3,0.4,0.6c0.1,0.2,0.2,0.5,0.2,0.7v34.4c0,1.2-0.6,1.8-1.9,1.8H150c-0.3,0-0.5,0-0.7-0.1
	c-0.2-0.1-0.3-0.2-0.4-0.3c-0.1-0.2-0.2-0.4-0.3-0.6c-0.1-0.3-0.2-0.5-0.3-0.8L147.6,34.6L147.6,34.6z M134.4,23.6
	c0,1,0.2,1.9,0.5,2.8c0.3,0.9,0.8,1.6,1.3,2.3c0.6,0.6,1.3,1.2,2.1,1.5c0.8,0.4,1.7,0.6,2.7,0.6c1,0,1.9-0.2,2.8-0.5
	c0.8-0.3,1.6-0.8,2.3-1.5c0.6-0.6,1.2-1.4,1.6-2.2c0.4-0.8,0.6-1.7,0.7-2.7v-0.3c0-1-0.2-1.9-0.6-2.8c-0.4-0.9-0.9-1.7-1.5-2.3
	c-0.7-0.7-1.4-1.2-2.3-1.6c-0.9-0.4-1.9-0.6-2.9-0.6c-1,0-1.9,0.2-2.7,0.6c-0.8,0.4-1.5,0.9-2.1,1.6c-0.6,0.7-1,1.5-1.3,2.3
	C134.5,21.7,134.4,22.6,134.4,23.6L134.4,23.6z M183.1,34.6c-0.4,0.4-0.9,0.9-1.4,1.3s-1,0.9-1.6,1.3c-0.6,0.4-1.2,0.8-1.9,1
	c-0.7,0.3-1.5,0.4-2.2,0.4c-2.1,0-4-0.4-5.8-1.2c-1.7-0.8-3.3-1.8-4.5-3.2c-1.3-1.4-2.3-3-3-4.8c-0.7-1.8-1.1-3.8-1.1-5.9
	c0-2.1,0.4-4.1,1.1-5.9s1.7-3.4,3-4.8c1.3-1.4,2.8-2.5,4.5-3.2c1.8-0.8,3.7-1.2,5.8-1.2c0.8,0,1.6,0.1,2.3,0.4
	c0.7,0.2,1.3,0.5,1.9,0.9c0.6,0.4,1.1,0.8,1.6,1.3c0.5,0.5,0.9,1,1.4,1.4V2c0-0.5,0.1-0.9,0.4-1.2c0.3-0.3,0.7-0.5,1.3-0.5h5.2
	c0.2,0,0.4,0,0.6,0.1c0.2,0.1,0.4,0.2,0.6,0.4c0.2,0.2,0.3,0.3,0.4,0.6c0.1,0.2,0.2,0.5,0.2,0.7v34.4c0,1.2-0.6,1.8-1.9,1.8h-4.5
	c-0.3,0-0.5,0-0.7-0.1c-0.2-0.1-0.3-0.2-0.4-0.3c-0.1-0.2-0.2-0.4-0.3-0.6c-0.1-0.3-0.2-0.5-0.3-0.8L183.1,34.6L183.1,34.6z
	 M169.9,23.6c0,1,0.2,1.9,0.5,2.8c0.3,0.9,0.8,1.6,1.3,2.3c0.6,0.6,1.3,1.2,2.1,1.5c0.8,0.4,1.7,0.6,2.7,0.6c1,0,1.9-0.2,2.8-0.5
	c0.8-0.3,1.6-0.8,2.3-1.5c0.6-0.6,1.2-1.4,1.6-2.2c0.4-0.8,0.6-1.7,0.7-2.7v-0.3c0-1-0.2-1.9-0.6-2.8c-0.4-0.9-0.9-1.7-1.5-2.3
	c-0.7-0.7-1.4-1.2-2.3-1.6c-0.9-0.4-1.9-0.6-2.9-0.6c-1,0-1.9,0.2-2.7,0.6c-0.8,0.4-1.5,0.9-2.1,1.6c-0.6,0.7-1,1.5-1.3,2.3
	C170,21.7,169.9,22.6,169.9,23.6L169.9,23.6z M198,2.1c0-0.5,0.1-0.9,0.4-1.2c0.2-0.3,0.7-0.5,1.3-0.5h5.6c0.2,0,0.3,0,0.5,0.1
	c0.2,0.1,0.3,0.2,0.5,0.4c0.1,0.2,0.3,0.3,0.4,0.6c0.1,0.2,0.1,0.5,0.1,0.7v34.3c0,0.6-0.2,1-0.5,1.3c-0.3,0.3-0.8,0.4-1.3,0.4h-5.3
	c-0.6,0-1-0.2-1.3-0.4c-0.2-0.3-0.4-0.7-0.4-1.3V2.1z M236.7,34.7c-1.3,1.2-2.9,2.2-4.6,2.9c-1.7,0.7-3.5,1.1-5.4,1
	c-2.1,0-4.1-0.4-6-1.2c-1.8-0.7-3.5-1.8-4.9-3.2c-1.4-1.4-2.6-3-3.4-4.8c-0.8-1.8-1.2-3.8-1.2-6c0-1.3,0.2-2.7,0.5-3.9
	c0.3-1.2,0.8-2.4,1.4-3.5c0.6-1.1,1.3-2.1,2.2-3c0.9-0.9,1.8-1.7,2.9-2.4c1.1-0.7,2.3-1.2,3.5-1.5c1.3-0.4,2.6-0.6,4-0.6
	c1.3,0,2.5,0.2,3.7,0.5c1.2,0.3,2.3,0.8,3.4,1.4c1.1,0.6,2,1.3,2.9,2.2c0.9,0.8,1.6,1.8,2.3,2.8c0.6,1,1.1,2.1,1.5,3.3
	c0.3,1.2,0.5,2.3,0.5,3.6c0,0.8,0,1.4,0,2c0,0.5-0.1,0.9-0.4,1.2c-0.2,0.3-0.6,0.5-1.1,0.6c-0.5,0.1-1.2,0.2-2.2,0.2h-16.5
	c0.2,1,0.5,1.8,0.9,2.5c0.4,0.6,1,1.2,1.6,1.6c0.6,0.4,1.3,0.7,2,0.8c0.6,0.2,1.3,0.2,2,0.3c0.6,0,1.1-0.1,1.7-0.2
	c0.6-0.1,1.1-0.3,1.7-0.5c0.5-0.2,1-0.4,1.5-0.7c0.5-0.3,0.8-0.5,1.1-0.8c0.2-0.2,0.5-0.3,0.6-0.4c0.2-0.1,0.4-0.1,0.6-0.1
	c0.2,0,0.4,0.1,0.6,0.2c0.3,0.2,0.5,0.4,0.7,0.6l2.4,2.8c0.2,0.2,0.3,0.4,0.3,0.5c0,0.2,0.1,0.3,0.1,0.5c0,0.3-0.1,0.6-0.3,0.8
	C237.1,34.3,236.9,34.5,236.7,34.7L236.7,34.7z M225.7,15.5c-0.6,0-1.2,0.1-1.7,0.4c-0.6,0.2-1.1,0.6-1.6,1
	c-0.5,0.4-0.9,0.9-1.3,1.4c-0.4,0.5-0.7,1-1,1.5h11.7c-0.3-0.6-0.7-1.1-1-1.7c-0.4-0.5-0.8-0.9-1.3-1.3c-0.5-0.4-1.1-0.7-1.7-0.9
	C227.2,15.6,226.5,15.5,225.7,15.5z"/>
</svg>
